<?xml version="1.0"?>
<svg xmlns="http://www.w3.org/2000/svg" xmlns:xlink="http://www.w3.org/1999/xlink" xmlns:svgjs="http://svgjs.com/svgjs" version="1.1" width="512" height="512" x="0" y="0" viewBox="0 0 64 64" style="enable-background:new 0 0 512 512" xml:space="preserve" class=""><g><g xmlns="http://www.w3.org/2000/svg" id="_02-discord" data-name="02-discord"><rect fill="#ff3535" height="62" rx="6" width="62" x="1" y="1" data-original="#7388d9" class=""/><path d="m57 1h-50a6 6 0 0 0 -6 6v10a22 22 0 0 0 22 22h18a22 22 0 0 0 22-22v-10a6 6 0 0 0 -6-6z" fill="#ff3535" data-original="#8198f2" class=""/><path d="m57 1h-50a6 6 0 0 0 -6 6v4a6 6 0 0 1 6-6h50a6 6 0 0 1 6 6v-4a6 6 0 0 0 -6-6z" fill="#ff3535" data-original="#94aaff" class=""/><path d="m57 59h-50a6 6 0 0 1 -6-6v4a6 6 0 0 0 6 6h50a6 6 0 0 0 6-6v-4a6 6 0 0 1 -6 6z" fill="#ff3535" data-original="#5061a6" class=""/><path d="m36 52-1-5a18.587 18.587 0 0 0 12-5c-.421.11-8.2 3-15 3s-14.579-2.89-15-3a18.587 18.587 0 0 0 12 5l-1 5a55.746 55.746 0 0 1 -16.1-3.093 5.972 5.972 0 0 1 -3.894-5.848 117.465 117.465 0 0 1 4.113-25.359 6 6 0 0 1 4.13-4.177 55.127 55.127 0 0 1 12.751-1.523 23.189 23.189 0 0 0 -11 6c.421-.11 7.2-3.008 14-3a43.061 43.061 0 0 1 14.029 2.972 23.088 23.088 0 0 0 -11.029-5.972 55.127 55.127 0 0 1 12.751 1.519 6 6 0 0 1 4.13 4.177 117.465 117.465 0 0 1 4.113 25.363 5.972 5.972 0 0 1 -3.894 5.848 55.746 55.746 0 0 1 -16.1 3.093z" fill="#fdfef9" data-original="#fdfef9" class=""/><circle cx="22" cy="33" fill="#ff3535" r="5" data-original="#7388d9" class=""/><circle cx="42" cy="33" fill="#ff3535" r="5" data-original="#7388d9" class=""/><g fill="#5061a6"><path d="m42 30a5 5 0 0 1 4.9 4 5 5 0 1 0 -9.8 0 5 5 0 0 1 4.9-4z" fill="#ff3535" data-original="#5061a6" class=""/><path d="m22 30a5 5 0 0 1 4.9 4 5 5 0 1 0 -9.8 0 5 5 0 0 1 4.9-4z" fill="#ff3535" data-original="#5061a6" class=""/><path d="m43.218 15.63a76.447 76.447 0 0 0 -8.218-.63c.267.055.789.174 1.482.381a45.828 45.828 0 0 1 9.547 2.591 20.956 20.956 0 0 0 -2.811-2.342z" fill="#ff3535" data-original="#5061a6" class=""/><path d="m11.9 48.907a5.973 5.973 0 0 1 -3.8-4.59c-.036.577-.069 1.156-.1 1.742a5.972 5.972 0 0 0 3.9 5.848 55.746 55.746 0 0 0 16.1 3.093l1-5s-.221 0-.595-.027l-.405 2.027a55.746 55.746 0 0 1 -16.1-3.093z" fill="#ff3535" data-original="#5061a6" class=""/><path d="m47 42c-.421.11-8.2 3-15 3s-14.579-2.89-15-3a18.587 18.587 0 0 0 12 5l-.162.811a29.385 29.385 0 0 0 3.162.189 29.385 29.385 0 0 0 3.162-.189l-.162-.811a18.587 18.587 0 0 0 12-5z" fill="#ff3535" data-original="#5061a6" class=""/><path d="m27.623 15.355c.638-.189 1.124-.3 1.377-.355a76.293 76.293 0 0 0 -8.14.619 21.265 21.265 0 0 0 -2.86 2.381 48.8 48.8 0 0 1 9.623-2.645z" fill="#ff3535" data-original="#5061a6" class=""/><path d="m52.1 48.907a55.746 55.746 0 0 1 -16.1 3.093l-.4-2.027c-.379.027-.6.027-.6.027l1 5a55.746 55.746 0 0 0 16.1-3.093 5.972 5.972 0 0 0 3.894-5.848c-.026-.586-.059-1.165-.095-1.742a5.973 5.973 0 0 1 -3.799 4.59z" fill="#ff3535" data-original="#5061a6" class=""/></g><path d="m11.988 22.23-1.946-.459q-.226.956-.459 2.016l1.955.426c.151-.693.302-1.356.45-1.983z" fill="#000000" data-original="#000000" class=""/><path d="m13.083 17.964a4.962 4.962 0 0 1 3.438-3.483 37.251 37.251 0 0 1 5.979-1.058 23.035 23.035 0 0 0 -5.209 3.869 1 1 0 0 0 .96 1.675c.063-.016.24-.078.516-.182a38.3 38.3 0 0 1 13.205-2.785h.028a42.354 42.354 0 0 1 13.539 2.843 1.008 1.008 0 0 0 1.261-.223 1 1 0 0 0 .144-1.067.9.9 0 0 0 -.221-.277l.012-.012a22.768 22.768 0 0 0 -5.149-3.831 36.938 36.938 0 0 1 5.892 1.048 4.961 4.961 0 0 1 3.438 3.484 118.445 118.445 0 0 1 3.818 21.119l1.993-.168a120.609 120.609 0 0 0 -3.884-21.489 6.947 6.947 0 0 0 -4.822-4.87 54.952 54.952 0 0 0 -12.993-1.557 1.019 1.019 0 0 0 -1.021.884 1 1 0 0 0 .79 1.095 22.209 22.209 0 0 1 5.839 2.221 49.749 49.749 0 0 0 -8.636-1.2h-.029a34.256 34.256 0 0 0 -8.571 1.205 21.827 21.827 0 0 1 5.8-2.226 1 1 0 0 0 -.228-1.979 54.952 54.952 0 0 0 -12.994 1.557 6.944 6.944 0 0 0 -4.821 4.87c-.187.668-.4 1.447-.621 2.325l1.939.5c.219-.867.425-1.631.608-2.288z" fill="#000000" data-original="#000000" class=""/><path d="m11.552 49.845a56.377 56.377 0 0 0 16.392 3.155.99.99 0 0 0 1.036-.8l1-5a1 1 0 0 0 -.98-1.2 18.177 18.177 0 0 1 -5.385-1.065 38.373 38.373 0 0 0 8.385 1.065 38.373 38.373 0 0 0 8.385-1.065 18.177 18.177 0 0 1 -5.385 1.065 1 1 0 0 0 -.98 1.2l1 5a1 1 0 0 0 .98.8h.056a56.377 56.377 0 0 0 16.392-3.154 6.942 6.942 0 0 0 4.545-6.829q-.047-1.05-.114-2.081l-2 .129q.066 1.011.112 2.039a4.949 4.949 0 0 1 -3.242 4.867 53.616 53.616 0 0 1 -14.939 2.977l-.6-3.02a19.263 19.263 0 0 0 11.5-5.22 1 1 0 0 0 -.96-1.675c-.053.013-.2.061-.434.14-6.936 2.336-11.616 2.827-14.316 2.827s-7.38-.491-14.313-2.827c-.233-.079-.381-.127-.434-.14a1 1 0 0 0 -.96 1.675 19.263 19.263 0 0 0 11.5 5.22l-.6 3.02a53.616 53.616 0 0 1 -14.946-2.978 4.949 4.949 0 0 1 -3.242-4.87 111.144 111.144 0 0 1 2.117-16.9l-1.961-.4a113.094 113.094 0 0 0 -2.154 17.215 6.942 6.942 0 0 0 4.545 6.83z" fill="#000000" data-original="#000000" class=""/><path d="m16 33a6 6 0 1 0 6-6 6.006 6.006 0 0 0 -6 6zm10 0a4 4 0 1 1 -4-4 4 4 0 0 1 4 4z" fill="#000000" data-original="#000000" class=""/><path d="m42 27a6 6 0 1 0 6 6 6.006 6.006 0 0 0 -6-6zm0 10a4 4 0 1 1 4-4 4 4 0 0 1 -4 4z" fill="#000000" data-original="#000000" class=""/><path d="m62 57a5.006 5.006 0 0 1 -5 5h-50a5.006 5.006 0 0 1 -5-5v-50a5.006 5.006 0 0 1 5-5h2v-2h-2a7.008 7.008 0 0 0 -7 7v50a7.008 7.008 0 0 0 7 7h50a7.008 7.008 0 0 0 7-7v-2h-2z" fill="#000000" data-original="#000000" class=""/><path d="m57 0h-42v2h42c4.351 0 5 5.639 5 9v42h2v-42c0-9.928-4.9-11-7-11z" fill="#000000" data-original="#000000" class=""/><path d="m11 0h2v2h-2z" fill="#000000" data-original="#000000" class=""/></g></g></svg>
